<?xml version="1.0" encoding="UTF-8"?>
<svg version="1.1" xmlns="http://www.w3.org/2000/svg" width="32" height="32">
<path d="M0 0 C8.58 0 17.16 0 26 0 C26 10.56 26 21.12 26 32 C17.42 32 8.84 32 0 32 C0 21.44 0 10.88 0 0 Z " fill="#BBB09F" transform="translate(3,0)"/>
<path d="M0 0 C3.63 0 7.26 0 11 0 C11 0.66 11 1.32 11 2 C10.01 2.495 10.01 2.495 9 3 C9.99 3.66 10.98 4.32 12 5 C12 5.66 12 6.32 12 7 C12.66 7 13.32 7 14 7 C14.66 6.01 15.32 5.02 16 4 C16 12.58 16 21.16 16 30 C7.42 30 -1.16 30 -10 30 C-10 23.07 -10 16.14 -10 9 C-9.67 9 -9.34 9 -9 9 C-9 10.98 -9 12.96 -9 15 C-8.34 15 -7.68 15 -7 15 C-6.67 14.34 -6.34 13.68 -6 13 C-5.67 14.65 -5.34 16.3 -5 18 C-5.66 18.33 -6.32 18.66 -7 19 C-6.60401298 21.87090587 -6.2676157 22.78915127 -3.9375 24.625 C-3.298125 25.07875 -2.65875 25.5325 -2 26 C-2 26.66 -2 27.32 -2 28 C5.31873297 27.96740354 5.31873297 27.96740354 11.6875 24.9375 C12.120625 24.298125 12.55375 23.65875 13 23 C12.67 22.34 12.34 21.68 12 21 C11.960008 19.00039988 11.95653201 16.99952758 12 15 C11.31292969 15.03480469 10.62585938 15.06960937 9.91796875 15.10546875 C9.01691406 15.13253906 8.11585937 15.15960938 7.1875 15.1875 C5.84751953 15.23970703 5.84751953 15.23970703 4.48046875 15.29296875 C1.58352485 14.95081002 0.77444972 14.24606427 -1 12 C-0.34 11.34 0.32 10.68 1 10 C2.67293936 10.30027117 4.33985384 10.63557767 6 11 C6.99 10.67 7.98 10.34 9 10 C9 9.01 9 8.02 9 7 C6.36 6.67 3.72 6.34 1 6 C0.67 4.02 0.34 2.04 0 0 Z " fill="#E7CA96" transform="translate(13,2)"/>
<path d="M0 0 C0.53109375 0.33773438 1.0621875 0.67546875 1.609375 1.0234375 C2.31578125 1.46945312 3.0221875 1.91546875 3.75 2.375 C4.79414063 3.03628906 4.79414063 3.03628906 5.859375 3.7109375 C7.86517383 4.91880906 9.89178296 5.98387737 12 7 C11.67 8.32 11.34 9.64 11 11 C12.32 10.67 13.64 10.34 15 10 C15.33 8.68 15.66 7.36 16 6 C16.66 6.33 17.32 6.66 18 7 C18 7.99 18 8.98 18 10 C18.66 10 19.32 10 20 10 C20.33 9.34 20.66 8.68 21 8 C21.33 9.98 21.66 11.96 22 14 C19.69066585 16.54823079 17.8096615 17.86283096 14.39453125 18.44140625 C9.55807223 18.64374124 6.88094228 18.63427844 2.875 15.75 C1.24029048 13.35242604 0.31669506 11.85025556 0 9 C0.99 8.67 1.98 8.34 3 8 C2.690625 7.236875 2.38125 6.47375 2.0625 5.6875 C1.32106407 3.81210323 0.63771783 1.91315348 0 0 Z " fill="#8B785E" transform="translate(5,12)"/>
<path d="M0 0 C0.33 0 0.66 0 1 0 C1 1.98 1 3.96 1 6 C1.66 6 2.32 6 3 6 C3.33 5.34 3.66 4.68 4 4 C4.33 5.65 4.66 7.3 5 9 C4.01 9.495 4.01 9.495 3 10 C3.39598702 12.87090587 3.7323843 13.78915127 6.0625 15.625 C6.701875 16.07875 7.34125 16.5325 8 17 C8 17.66 8 18.32 8 19 C9.75091019 18.91245449 11.50079551 18.80426627 13.25 18.6875 C14.22453125 18.62949219 15.1990625 18.57148438 16.203125 18.51171875 C19.30867387 17.94352475 20.75904644 17.19945442 23 15 C23.80946422 11.89802603 23.80946422 11.89802603 24 9 C26 11 26 11 26 21 C17.42 21 8.84 21 0 21 C0 14.07 0 7.14 0 0 Z " fill="#FAF7E7" transform="translate(3,11)"/>
<path d="M0 0 C0.66 0 1.32 0 2 0 C2 1.32 2 2.64 2 4 C3.32 4 4.64 4 6 4 C6.33 3.34 6.66 2.68 7 2 C8.5 3.3125 8.5 3.3125 10 5 C10 5.99 10 6.98 10 8 C8.02 8.99 8.02 8.99 6 10 C6 9.34 6 8.68 6 8 C3.525 9.485 3.525 9.485 1 11 C3.43387753 12.21693876 5.41838846 12.31959896 8.125 12.5625 C9.03507812 12.64628906 9.94515625 12.73007812 10.8828125 12.81640625 C11.93082031 12.90728516 11.93082031 12.90728516 13 13 C13.33 13.99 13.66 14.98 14 16 C13.67 16.66 13.34 17.32 13 18 C12.34 18 11.68 18 11 18 C10.34 17.01 9.68 16.02 9 15 C8.67 16.32 8.34 17.64 8 19 C6.68 19 5.36 19 4 19 C3.67 18.01 3.34 17.02 3 16 C3.33 15.67 3.66 15.34 4 15 C1.36 13.68 -1.28 12.36 -4 11 C-3.49357808 6.64477147 -2.61588503 3.55760365 0 0 Z " fill="#B6A07D" transform="translate(12,4)"/>
<path d="M0 0 C0.33 0 0.66 0 1 0 C1 1.98 1 3.96 1 6 C1.66 6 2.32 6 3 6 C3.33 5.34 3.66 4.68 4 4 C4.33 5.65 4.66 7.3 5 9 C4.01 9.495 4.01 9.495 3 10 C3.39598702 12.87090587 3.7323843 13.78915127 6.0625 15.625 C6.701875 16.07875 7.34125 16.5325 8 17 C8 17.66 8 18.32 8 19 C5.36 19 2.72 19 0 19 C0 12.73 0 6.46 0 0 Z " fill="#E0D7C5" transform="translate(3,11)"/>
<path d="M0 0 C0.66 0.33 1.32 0.66 2 1 C2 1.66 2 2.32 2 3 C2.66 3 3.32 3 4 3 C4.66 2.01 5.32 1.02 6 0 C6.0809313 2.60478883 6.14045434 5.20706653 6.1875 7.8125 C6.22520508 8.91948242 6.22520508 8.91948242 6.26367188 10.04882812 C6.33834499 15.54974762 6.33834499 15.54974762 4.48828125 18.01171875 C3.75158203 18.50091797 3.75158203 18.50091797 3 19 C1.5216774 16.04335481 1.93967217 13.25770263 2 10 C0.35 10 -1.3 10 -3 10 C-1.68 9.01 -0.36 8.02 1 7 C0.67 4.69 0.34 2.38 0 0 Z " fill="#D7CEBC" transform="translate(23,6)"/>
<path d="M0 0 C0.53109375 0.33773438 1.0621875 0.67546875 1.609375 1.0234375 C2.31578125 1.46945312 3.0221875 1.91546875 3.75 2.375 C4.79414063 3.03628906 4.79414063 3.03628906 5.859375 3.7109375 C7.86517383 4.91880906 9.89178296 5.98387737 12 7 C11.67 7.66 11.34 8.32 11 9 C11.33 9.99 11.66 10.98 12 12 C8.7 11.34 5.4 10.68 2 10 C2.04125 9.0925 2.0825 8.185 2.125 7.25 C2.00206853 4.05378189 1.49964451 2.71589164 0 0 Z " fill="#4A3C30" transform="translate(5,12)"/>
<path d="M0 0 C0.66 0 1.32 0 2 0 C2 1.32 2 2.64 2 4 C3.32 4 4.64 4 6 4 C6.33 3.34 6.66 2.68 7 2 C8.5 3.3125 8.5 3.3125 10 5 C10 5.99 10 6.98 10 8 C9.34 8 8.68 8 8 8 C8 7.34 8 6.68 8 6 C4.37 6.33 0.74 6.66 -3 7 C-1 2 -1 2 0 0 Z " fill="#CEA66C" transform="translate(12,4)"/>
<path d="M0 0 C0.91007812 0.00902344 1.82015625 0.01804687 2.7578125 0.02734375 C3.45648438 0.03894531 4.15515625 0.05054688 4.875 0.0625 C4.545 1.3825 4.215 2.7025 3.875 4.0625 C3.545 3.4025 3.215 2.7425 2.875 2.0625 C2.09125 2.3925 1.3075 2.7225 0.5 3.0625 C-2.125 4.0625 -2.125 4.0625 -4.125 4.0625 C-4.785 4.7225 -5.445 5.3825 -6.125 6.0625 C-6.455 4.4125 -6.785 2.7625 -7.125 1.0625 C-4.60024538 -0.19987731 -2.81299534 -0.03606404 0 0 Z " fill="#B99057" transform="translate(15.125,9.9375)"/>
<path d="M0 0 C0.33 0 0.66 0 1 0 C1 10.56 1 21.12 1 32 C0.67 32 0.34 32 0 32 C0 21.44 0 10.88 0 0 Z " fill="#FFFFFF" transform="translate(30,0)"/>
<path d="M0 0 C0.33 0 0.66 0 1 0 C1 10.56 1 21.12 1 32 C0.67 32 0.34 32 0 32 C0 21.44 0 10.88 0 0 Z " fill="#AF9F8F" transform="translate(1,0)"/>
<path d="M0 0 C2.31 0 4.62 0 7 0 C7 0.99 7 1.98 7 3 C5.35 3.33 3.7 3.66 2 4 C1.34 2.68 0.68 1.36 0 0 Z " fill="#514132" transform="translate(9,25)"/>
<path d="M0 0 C1.65 0 3.3 0 5 0 C4.67 1.65 4.34 3.3 4 5 C2.68 5 1.36 5 0 5 C-0.33 4.01 -0.66 3.02 -1 2 C-0.67 1.34 -0.34 0.68 0 0 Z " fill="#A5947B" transform="translate(16,18)"/>
<path d="M0 0 C2.31 0 4.62 0 7 0 C7.33 0.99 7.66 1.98 8 3 C5.36 3 2.72 3 0 3 C0 2.01 0 1.02 0 0 Z " fill="#DCD6C5" transform="translate(3,27)"/>
<path d="M0 0 C0.66 0 1.32 0 2 0 C2.36923077 6.52307692 2.36923077 6.52307692 0.5 8.9375 C0.005 9.288125 -0.49 9.63875 -1 10 C-2.54578627 6.90842747 -1.60277633 4.31526981 -1 1 C-0.67 0.67 -0.34 0.34 0 0 Z " fill="#DDD5C5" transform="translate(27,15)"/>
<path d="M0 0 C1.5 1.125 1.5 1.125 3 3 C3.1875 6.1875 3.1875 6.1875 3 9 C1.02 9.33 -0.96 9.66 -3 10 C-1.68 9.01 -0.36 8.02 1 7 C0.67 4.69 0.34 2.38 0 0 Z " fill="#F6E8C7" transform="translate(23,6)"/>
<path d="M0 0 C0.66 0.66 1.32 1.32 2 2 C1.64700993 5.44165321 0.95418308 7.06872538 -1 10 C-2.32 9.67 -3.64 9.34 -5 9 C-4.0409375 8.443125 -4.0409375 8.443125 -3.0625 7.875 C-0.36141928 5.41947207 -0.31592995 3.55421195 0 0 Z " fill="#EEE9D7" transform="translate(27,20)"/>
<path d="M0 0 C1.98 0 3.96 0 6 0 C5.34 1.32 4.68 2.64 4 4 C2.68 4 1.36 4 0 4 C0 2.68 0 1.36 0 0 Z " fill="#695745" transform="translate(19,25)"/>
<path d="M0 0 C0.66 0.33 1.32 0.66 2 1 C2 1.99 2 2.98 2 4 C2.66 4 3.32 4 4 4 C4.33 3.34 4.66 2.68 5 2 C5 2.99 5 3.98 5 5 C3.02 5.33 1.04 5.66 -1 6 C-1.042721 4.33388095 -1.04063832 2.66617115 -1 1 C-0.67 0.67 -0.34 0.34 0 0 Z " fill="#4C413A" transform="translate(21,18)"/>
<path d="M0 0 C4.37934119 0.51958285 8.68803391 1.05675742 13 2 C13 2.33 13 2.66 13 3 C11.39667209 3.08121924 9.79215974 3.13929134 8.1875 3.1875 C7.29417969 3.22230469 6.40085937 3.25710937 5.48046875 3.29296875 C2.58352485 2.95081002 1.77444972 2.24606427 0 0 Z " fill="#E2CDA5" transform="translate(12,14)"/>
<path d="M0 0 C1.98 1.65 3.96 3.3 6 5 C4.125 6.0625 4.125 6.0625 2 7 C1.34 6.67 0.68 6.34 0 6 C0 4.02 0 2.04 0 0 Z " fill="#ECE6D5" transform="translate(3,21)"/>
<path d="M0 0 C2.97 0.33 5.94 0.66 9 1 C8.67 1.66 8.34 2.32 8 3 C5.4375 3.625 5.4375 3.625 3 4 C2.01 2.68 1.02 1.36 0 0 Z " fill="#D5BB90" transform="translate(14,12)"/>
<path d="M0 0 C0.66 0 1.32 0 2 0 C2.66 2.31 3.32 4.62 4 7 C3.01 7.495 3.01 7.495 2 8 C1.01 7.34 0.02 6.68 -1 6 C-0.34 6 0.32 6 1 6 C0.67 4.02 0.34 2.04 0 0 Z " fill="#EFCE94" transform="translate(21,6)"/>
</svg>
